# xmcd
#
# Track frame offsets:
#	150
#	21319
#	42415
#	64400
#	78879
#	111126
#	128629
#	158973
#	178884
#	216637
#	278386
#
# Disc length: 4066 seconds
#
# Revision: 4
# Processed by: cddbd v1.4PL0 Copyright (c) Steve Scherf et al.
# Submitted via: EasyCDDAExtractor 5.0.6
#
DISCID=9d0fe00b
DTITLE=Dolly Parton - Walking On Sunshine
DYEAR=1998
DGENRE=Country
TTITLE0=Walking On Sunshine (Mark Kamin's Radio Mix)
TTITLE1=Peace Train (Junior Vasquez Mix)
TTITLE2=Two Doors Down (Boy Wunder Radio Edit)
TTITLE3=Walking On Sunshine (Original Mix)
TTITLE4=Peace Train (Bounce Euro Mix)
TTITLE5=Two Doors Down (Cyphonix Radio Mix)
TTITLE6=Walking On Sunshine (Mark Kamin's Harder Mix)
TTITLE7=Peace Train (Holy Roller Mix)
TTITLE8=Two Doors Down (Boy Wunder Mix)
TTITLE9=Peace Train (Junior's Arena Mix)
TTITLE10=Two Doors Down (Cyphonix Extended Mix)
EXTD=YEAR: 1998 ID3G:   2
EXTT0=
EXTT1=
EXTT2=
EXTT3=
EXTT4=
EXTT5=
EXTT6=
EXTT7=
EXTT8=
EXTT9=
EXTT10=
PLAYORDER=
